<svg xmlns="http://www.w3.org/2000/svg" viewBox="0 0 112.34 112.34"><title>&#x8D44;&#x6E90; 134</title><path d="M82.78 73.42a11.52 11.52 0 0 0-.82-17 11.72 11.72 0 0 0-15.69 1l-4.44 4.44-4.68 4.64a27.51 27.51 0 1 1-38.9-38.9l4.67-4.68A13.42 13.42 0 0 0 13.43 0 13.43 13.43 0 0 0 0 13.43v85.48a13.43 13.43 0 0 0 13.43 13.43H38.3a13.43 13.43 0 0 0 9.5-3.93z" fill="#15b788"/><path d="M74 0a13.43 13.43 0 0 0-9.5 3.93l-35 35a11.51 11.51 0 0 0 16.34 16.26l4.67-4.68 4.27-4.26C65.36 35.66 82.6 35 93.5 45.26a27.53 27.53 0 0 1 .59 39.48l-4.67 4.68a13.42 13.42 0 0 0 9.49 22.92 13.43 13.43 0 0 0 13.43-13.43V13.43A13.43 13.43 0 0 0 98.91 0z" fill="#1395ba"/></svg>